<svg width="43" height="43" viewBox="0 0 43 43" fill="none" xmlns="http://www.w3.org/2000/svg">
<mask id="mask0" mask-type="alpha" maskUnits="userSpaceOnUse" x="0" y="0" width="43" height="43">
<rect width="43" height="43" fill="#C4C4C4"/>
</mask>
<g mask="url(#mask0)">
<path d="M4.25725 10.1143C3.80431 8.41711 4.28923 6.60712 5.53 5.36367C6.77581 4.11518 8.59395 3.62783 10.2972 4.08584L10.7196 4.19944C12.1975 4.59684 13.4526 5.57347 14.201 6.90835L18.1836 14.0119L14.1652 18.0351L7.09082 14.0547C5.75 13.3003 4.77031 12.0368 4.37361 10.5503L4.25725 10.1143Z" fill="#5F9DF8" stroke="#5F9DF8" stroke-width="1.59159" stroke-miterlimit="10" stroke-linecap="round"/>
<path d="M36.7973 37.1082C36.6073 37.2879 36.3712 37.4114 36.1153 37.4651V37.4651C35.647 37.5633 35.1607 37.4183 34.8227 37.0797L17.42 19.6429C16.768 18.9896 16.7675 17.9319 17.4189 17.278V17.278C18.0731 16.6214 19.1361 16.621 19.7907 17.2771L37.2105 34.7344C37.535 35.0596 37.6798 35.5231 37.598 35.9752V35.9752C37.5447 36.2697 37.3987 36.5394 37.1813 36.745L36.7973 37.1082Z" stroke="#5F9DF8" stroke-width="1.59159" stroke-miterlimit="10" stroke-linecap="round"/>
<path d="M13.9586 18.3878L18.5386 13.7979C18.9935 13.342 19.7311 13.342 20.186 13.7979C20.6409 14.2538 20.6409 14.9929 20.186 15.4488L15.606 20.0387C15.1511 20.4946 14.4135 20.4946 13.9586 20.0387C13.5037 19.5828 13.5037 18.8437 13.9586 18.3878Z" fill="#5F9DF8" stroke="#5F9DF8" stroke-width="1.59159" stroke-miterlimit="10" stroke-linecap="round"/>
<path d="M36.9204 36.9758L39.0264 39.1205" stroke="#5F9DF8" stroke-width="1.59159" stroke-miterlimit="10" stroke-linecap="round"/>
</g>
</svg>
