<svg width="73" height="63" viewBox="0 0 73 63" fill="none" xmlns="http://www.w3.org/2000/svg">
<path fill-rule="evenodd" clip-rule="evenodd" d="M52.158 47.4944C53.6191 46.2104 54.9385 44.7689 56.0895 43.1965L55.1958 45.3775C54.6309 46.756 54.9997 48.341 56.1152 49.3284L62.112 54.6366C63.9175 56.2348 66.7602 55.5732 67.6745 53.3421L72.6265 41.2583C73.1914 39.8798 72.8225 38.2949 71.7071 37.3075L65.7102 31.9992C64.2207 30.6807 62.0251 30.9003 60.7889 32.2704C61.0712 30.7163 61.2186 29.1152 61.2186 27.4797C61.2186 12.7693 49.2935 0.844238 34.5832 0.844238C27.3161 0.844238 20.7288 3.75452 15.9231 8.47317H10.5077C4.70446 8.47317 0 13.1776 0 18.9809V52.4589C0 58.2622 4.70446 62.9666 10.5077 62.9666H41.6503C47.4536 62.9666 52.158 58.2622 52.158 52.4589V47.4944ZM52.158 45.5877C56.8821 41.0018 59.8176 34.5835 59.8176 27.4797C59.8176 13.5431 48.5198 2.24527 34.5832 2.24527C20.6466 2.24527 9.34881 13.5431 9.34881 27.4797C9.34881 41.2349 20.3545 52.4195 34.0405 52.7083C34.2189 52.712 34.3977 52.7139 34.577 52.7139C41.4128 52.7139 47.6137 49.9958 52.158 45.5815V45.5877ZM42.3446 20.0421C42.3446 18.0304 42.3446 16.3141 44.1429 16.3141C45.9412 16.3141 45.9412 18.0304 45.9412 20.0421C45.9412 22.0537 45.9412 23.687 44.1429 23.687C42.3446 23.687 42.3446 22.0537 42.3446 20.0421ZM37.8775 16.3152C36.0792 16.3152 36.0792 18.0315 36.0792 20.0432C36.0792 22.0548 36.0792 23.6881 37.8775 23.6881C39.6758 23.6881 39.6758 22.0548 39.6758 20.0432C39.6758 18.0315 39.6758 16.3152 37.8775 16.3152ZM22.9075 44.2155C24.6768 45.4192 26.7506 46.0283 29.129 46.0283C30.6944 46.0283 32.4002 45.7639 34.234 45.2289C35.1957 46.0699 36.454 46.5799 37.83 46.5799C39.5413 46.5799 41.0786 45.7822 42.0792 44.5495C42.1227 44.5205 42.1662 44.4915 42.1952 44.4625L44.1676 42.3016C45.2118 41.0979 45.3713 39.9667 44.6607 39.3576C43.9981 38.8055 43.467 38.8708 42.9921 39.091C43.5031 38.4812 43.5443 37.5706 43.0219 36.9212C42.4853 36.2396 41.5426 36.0945 40.8175 36.5296C40.8103 36.5224 40.7994 36.5151 40.7886 36.5079L40.7885 36.5079L40.7757 36.4992C40.772 36.4966 40.7685 36.494 40.7654 36.4914C40.7632 36.4896 40.7613 36.4879 40.7595 36.4861L42.8624 34.6733C43.5875 34.0497 43.6745 32.9475 43.0364 32.2079C42.4128 31.4827 41.3106 31.3957 40.571 32.0338L36.0317 35.9495C33.8998 36.6891 32.3625 38.7195 32.3625 41.1124C32.3625 41.4442 32.3922 41.7691 32.449 42.0847C29.2904 42.8495 26.7597 42.6003 24.8943 41.3295C21.2397 38.8351 21.0511 33.0921 21.0511 33.0341C21.0221 32.0769 20.2245 31.3228 19.2673 31.3373C18.2957 31.3663 17.5415 32.1639 17.556 33.1211L17.557 33.1446C17.5793 33.6967 17.8646 40.7682 22.9075 44.2155ZM42.9204 39.1256C42.9149 39.1036 42.9218 39.1087 42.9311 39.1203L42.9204 39.1256ZM39.054 25.7789C39.0523 25.3921 38.7372 25.0799 38.3503 25.0816C37.9635 25.0834 37.6513 25.3984 37.653 25.7853C37.6611 27.5524 39.091 29.0012 40.8715 28.9931C42.6386 28.985 44.0874 27.555 44.0793 25.7745C44.0775 25.3877 43.7625 25.0755 43.3756 25.0772C42.9887 25.079 42.6765 25.394 42.6783 25.7809C42.6828 26.7743 41.8719 27.5875 40.8652 27.592C39.8718 27.5966 39.0586 26.7857 39.054 25.7789ZM64.7816 33.0483C63.6983 32.0894 61.9927 32.4863 61.4441 33.825L56.4921 45.9088C56.1532 46.7359 56.3745 47.6868 57.0438 48.2793L63.0406 53.5875C64.1239 54.5464 65.8296 54.1495 66.3782 52.8108L71.3301 40.727C71.669 39.9 71.4477 38.949 70.7784 38.3565L67.3642 35.3343C67.3778 35.3721 67.385 35.4122 67.385 35.4531V37.7345C67.385 38.0299 67.0416 38.1927 66.8129 38.0055L63.9869 35.6933C63.7779 35.5223 63.8328 35.1891 64.0857 35.0943L66.1186 34.332C66.1479 34.321 66.1781 34.3141 66.2084 34.3112L64.7816 33.0483ZM61.6342 37.5064C61.4887 37.379 61.2674 37.3938 61.14 37.5394C61.0126 37.6849 61.0274 37.9062 61.173 38.0336L66.8007 42.9579C66.9463 43.0852 67.1675 43.0705 67.2949 42.9249C67.4223 42.7793 67.4076 42.558 67.262 42.4307L61.6342 37.5064ZM60.2273 40.672C60.0817 40.5446 59.8605 40.5594 59.7331 40.7049C59.6057 40.8505 59.6204 41.0718 59.766 41.1992L65.3938 46.1235C65.5393 46.2508 65.7606 46.2361 65.888 46.0905C66.0154 45.9449 66.0006 45.7236 65.855 45.5963L60.2273 40.672ZM58.8204 43.8376C58.6748 43.7102 58.4535 43.725 58.3261 43.8705C58.1988 44.0161 58.2135 44.2374 58.3591 44.3648L63.9868 49.2891C64.1324 49.4164 64.3537 49.4017 64.4811 49.2561C64.6084 49.1105 64.5937 48.8892 64.4481 48.7619L58.8204 43.8376Z" fill="#5F9DF8"/>
</svg>
